<mxfile host="app.diagrams.net" agent="Mozilla/5.0 (Windows NT 10.0; Win64; x64) AppleWebKit/537.36 (KHTML, like Gecko) Chrome/131.0.0.0 Safari/537.36 Edg/131.0.0.0" version="26.0.6">
  <diagram name="Page-1" id="VtwmHmZbd0Ul7xM4WBaP">
    <mxGraphModel dx="872" dy="481" grid="1" gridSize="10" guides="1" tooltips="1" connect="1" arrows="1" fold="1" page="1" pageScale="1" pageWidth="827" pageHeight="1169" math="0" shadow="0">
      <root>
        <mxCell id="0" />
        <mxCell id="1" parent="0" />
        <mxCell id="ZZ5gkap-CyeUWCc_6mnn-1" value="Employee" style="swimlane;fontStyle=1;align=center;verticalAlign=top;childLayout=stackLayout;horizontal=1;startSize=26;horizontalStack=0;resizeParent=1;resizeParentMax=0;resizeLast=0;collapsible=1;marginBottom=0;whiteSpace=wrap;html=1;" parent="1" vertex="1">
          <mxGeometry x="90" y="50" width="150" height="144" as="geometry" />
        </mxCell>
        <mxCell id="ZZ5gkap-CyeUWCc_6mnn-2" value="+Name&lt;div&gt;+Gender&lt;/div&gt;&lt;div&gt;+Email&lt;/div&gt;&lt;div&gt;+Phone&lt;/div&gt;&lt;div&gt;+Department&lt;/div&gt;&lt;div&gt;&lt;br&gt;&lt;/div&gt;" style="text;strokeColor=none;fillColor=none;align=left;verticalAlign=top;spacingLeft=4;spacingRight=4;overflow=hidden;rotatable=0;points=[[0,0.5],[1,0.5]];portConstraint=eastwest;whiteSpace=wrap;html=1;" parent="ZZ5gkap-CyeUWCc_6mnn-1" vertex="1">
          <mxGeometry y="26" width="150" height="84" as="geometry" />
        </mxCell>
        <mxCell id="ZZ5gkap-CyeUWCc_6mnn-3" value="" style="line;strokeWidth=1;fillColor=none;align=left;verticalAlign=middle;spacingTop=-1;spacingLeft=3;spacingRight=3;rotatable=0;labelPosition=right;points=[];portConstraint=eastwest;strokeColor=inherit;" parent="ZZ5gkap-CyeUWCc_6mnn-1" vertex="1">
          <mxGeometry y="110" width="150" height="8" as="geometry" />
        </mxCell>
        <mxCell id="ZZ5gkap-CyeUWCc_6mnn-4" value="isFinance()" style="text;strokeColor=none;fillColor=none;align=left;verticalAlign=top;spacingLeft=4;spacingRight=4;overflow=hidden;rotatable=0;points=[[0,0.5],[1,0.5]];portConstraint=eastwest;whiteSpace=wrap;html=1;" parent="ZZ5gkap-CyeUWCc_6mnn-1" vertex="1">
          <mxGeometry y="118" width="150" height="26" as="geometry" />
        </mxCell>
        <mxCell id="ZZ5gkap-CyeUWCc_6mnn-5" value="Employee" style="swimlane;fontStyle=1;align=center;verticalAlign=top;childLayout=stackLayout;horizontal=1;startSize=26;horizontalStack=0;resizeParent=1;resizeParentMax=0;resizeLast=0;collapsible=1;marginBottom=0;whiteSpace=wrap;html=1;fillColor=#e51400;strokeColor=#B20000;fontColor=#ffffff;" parent="1" vertex="1">
          <mxGeometry x="90" y="50" width="150" height="144" as="geometry" />
        </mxCell>
        <mxCell id="ZZ5gkap-CyeUWCc_6mnn-6" value="+Name&lt;div&gt;+Gender&lt;/div&gt;&lt;div&gt;+Email&lt;/div&gt;&lt;div&gt;+Phone&lt;/div&gt;&lt;div&gt;+Department&lt;/div&gt;&lt;div&gt;&lt;br&gt;&lt;/div&gt;" style="text;strokeColor=none;fillColor=none;align=left;verticalAlign=top;spacingLeft=4;spacingRight=4;overflow=hidden;rotatable=0;points=[[0,0.5],[1,0.5]];portConstraint=eastwest;whiteSpace=wrap;html=1;" parent="ZZ5gkap-CyeUWCc_6mnn-5" vertex="1">
          <mxGeometry y="26" width="150" height="84" as="geometry" />
        </mxCell>
        <mxCell id="ZZ5gkap-CyeUWCc_6mnn-7" value="" style="line;strokeWidth=1;fillColor=none;align=left;verticalAlign=middle;spacingTop=-1;spacingLeft=3;spacingRight=3;rotatable=0;labelPosition=right;points=[];portConstraint=eastwest;strokeColor=inherit;" parent="ZZ5gkap-CyeUWCc_6mnn-5" vertex="1">
          <mxGeometry y="110" width="150" height="8" as="geometry" />
        </mxCell>
        <mxCell id="ZZ5gkap-CyeUWCc_6mnn-8" value="isFinance()&lt;div&gt;&lt;br&gt;&lt;/div&gt;" style="text;strokeColor=none;fillColor=none;align=left;verticalAlign=top;spacingLeft=4;spacingRight=4;overflow=hidden;rotatable=0;points=[[0,0.5],[1,0.5]];portConstraint=eastwest;whiteSpace=wrap;html=1;" parent="ZZ5gkap-CyeUWCc_6mnn-5" vertex="1">
          <mxGeometry y="118" width="150" height="26" as="geometry" />
        </mxCell>
        <mxCell id="ZZ5gkap-CyeUWCc_6mnn-9" value="Employee" style="swimlane;fontStyle=1;align=center;verticalAlign=top;childLayout=stackLayout;horizontal=1;startSize=26;horizontalStack=0;resizeParent=1;resizeParentMax=0;resizeLast=0;collapsible=1;marginBottom=0;whiteSpace=wrap;html=1;fillColor=#e3c800;strokeColor=#B09500;fontColor=#000000;" parent="1" vertex="1">
          <mxGeometry x="310" y="50" width="150" height="144" as="geometry" />
        </mxCell>
        <mxCell id="ZZ5gkap-CyeUWCc_6mnn-10" value="+Name&lt;div&gt;+Gender&lt;/div&gt;&lt;div&gt;+Email&lt;/div&gt;&lt;div&gt;+Phone&lt;/div&gt;&lt;div&gt;+Department&lt;/div&gt;&lt;div&gt;&lt;br&gt;&lt;/div&gt;" style="text;strokeColor=none;fillColor=none;align=left;verticalAlign=top;spacingLeft=4;spacingRight=4;overflow=hidden;rotatable=0;points=[[0,0.5],[1,0.5]];portConstraint=eastwest;whiteSpace=wrap;html=1;" parent="ZZ5gkap-CyeUWCc_6mnn-9" vertex="1">
          <mxGeometry y="26" width="150" height="84" as="geometry" />
        </mxCell>
        <mxCell id="ZZ5gkap-CyeUWCc_6mnn-11" value="" style="line;strokeWidth=1;fillColor=none;align=left;verticalAlign=middle;spacingTop=-1;spacingLeft=3;spacingRight=3;rotatable=0;labelPosition=right;points=[];portConstraint=eastwest;strokeColor=inherit;" parent="ZZ5gkap-CyeUWCc_6mnn-9" vertex="1">
          <mxGeometry y="110" width="150" height="8" as="geometry" />
        </mxCell>
        <mxCell id="ZZ5gkap-CyeUWCc_6mnn-12" value="isDataentry()" style="text;strokeColor=none;fillColor=none;align=left;verticalAlign=top;spacingLeft=4;spacingRight=4;overflow=hidden;rotatable=0;points=[[0,0.5],[1,0.5]];portConstraint=eastwest;whiteSpace=wrap;html=1;" parent="ZZ5gkap-CyeUWCc_6mnn-9" vertex="1">
          <mxGeometry y="118" width="150" height="26" as="geometry" />
        </mxCell>
        <mxCell id="IN7CzRkA_pvhB2IImy1x-4" value="Finance" style="swimlane;childLayout=stackLayout;horizontal=1;startSize=50;horizontalStack=0;rounded=1;fontSize=14;fontStyle=0;strokeWidth=2;resizeParent=0;resizeLast=1;shadow=0;dashed=0;align=center;arcSize=4;whiteSpace=wrap;html=1;" vertex="1" parent="1">
          <mxGeometry x="80" y="280" width="160" height="120" as="geometry" />
        </mxCell>
        <mxCell id="IN7CzRkA_pvhB2IImy1x-5" value="+View Students&lt;div&gt;+Add Donor, Employee&lt;/div&gt;&lt;div&gt;+Edit Donor, Employee&lt;/div&gt;&lt;div&gt;+Delete Donor, Employee&amp;nbsp;&lt;/div&gt;" style="align=left;strokeColor=none;fillColor=none;spacingLeft=4;fontSize=12;verticalAlign=top;resizable=0;rotatable=0;part=1;html=1;" vertex="1" parent="IN7CzRkA_pvhB2IImy1x-4">
          <mxGeometry y="50" width="160" height="70" as="geometry" />
        </mxCell>
        <mxCell id="IN7CzRkA_pvhB2IImy1x-6" value="" style="endArrow=block;endFill=1;html=1;edgeStyle=orthogonalEdgeStyle;align=left;verticalAlign=top;rounded=0;entryX=0.5;entryY=0;entryDx=0;entryDy=0;exitX=0.46;exitY=1.154;exitDx=0;exitDy=0;exitPerimeter=0;strokeColor=light-dark(#e51400, #ededed);" edge="1" parent="1" source="ZZ5gkap-CyeUWCc_6mnn-8" target="IN7CzRkA_pvhB2IImy1x-4">
          <mxGeometry x="-1" relative="1" as="geometry">
            <mxPoint x="330" y="250" as="sourcePoint" />
            <mxPoint x="490" y="250" as="targetPoint" />
            <Array as="points">
              <mxPoint x="160" y="198" />
            </Array>
          </mxGeometry>
        </mxCell>
        <mxCell id="IN7CzRkA_pvhB2IImy1x-7" value="1" style="edgeLabel;resizable=0;html=1;align=left;verticalAlign=bottom;" connectable="0" vertex="1" parent="IN7CzRkA_pvhB2IImy1x-6">
          <mxGeometry x="-1" relative="1" as="geometry" />
        </mxCell>
        <mxCell id="IN7CzRkA_pvhB2IImy1x-8" value="Data-Entry" style="swimlane;childLayout=stackLayout;horizontal=1;startSize=50;horizontalStack=0;rounded=1;fontSize=14;fontStyle=0;strokeWidth=2;resizeParent=0;resizeLast=1;shadow=0;dashed=0;align=center;arcSize=4;whiteSpace=wrap;html=1;" vertex="1" parent="1">
          <mxGeometry x="310" y="280" width="230" height="120" as="geometry" />
        </mxCell>
        <mxCell id="IN7CzRkA_pvhB2IImy1x-9" value="+View Students&lt;div&gt;+Add Student, School, Intermediary&lt;/div&gt;&lt;div&gt;+Edit Student, School, Intemediary&lt;/div&gt;&lt;div&gt;+Delete Student, School, Intermediary&lt;/div&gt;&lt;div&gt;&lt;br&gt;&lt;/div&gt;" style="align=left;strokeColor=none;fillColor=none;spacingLeft=4;fontSize=12;verticalAlign=top;resizable=0;rotatable=0;part=1;html=1;" vertex="1" parent="IN7CzRkA_pvhB2IImy1x-8">
          <mxGeometry y="50" width="230" height="70" as="geometry" />
        </mxCell>
        <mxCell id="IN7CzRkA_pvhB2IImy1x-10" value="" style="endArrow=block;endFill=1;html=1;edgeStyle=orthogonalEdgeStyle;align=left;verticalAlign=top;rounded=0;entryX=0.5;entryY=0;entryDx=0;entryDy=0;exitX=0.46;exitY=1.154;exitDx=0;exitDy=0;exitPerimeter=0;strokeColor=light-dark(#e3c800, #ededed);" edge="1" parent="1">
          <mxGeometry x="-1" relative="1" as="geometry">
            <mxPoint x="384.5" y="198" as="sourcePoint" />
            <mxPoint x="385.5" y="280" as="targetPoint" />
            <Array as="points">
              <mxPoint x="385.5" y="198" />
            </Array>
          </mxGeometry>
        </mxCell>
        <mxCell id="IN7CzRkA_pvhB2IImy1x-11" value="1" style="edgeLabel;resizable=0;html=1;align=left;verticalAlign=bottom;" connectable="0" vertex="1" parent="IN7CzRkA_pvhB2IImy1x-10">
          <mxGeometry x="-1" relative="1" as="geometry" />
        </mxCell>
        <mxCell id="IN7CzRkA_pvhB2IImy1x-12" value="&lt;font style=&quot;color: rgb(255, 51, 51);&quot;&gt;Donor&lt;/font&gt;" style="swimlane;fontStyle=1;align=center;verticalAlign=top;childLayout=stackLayout;horizontal=1;startSize=26;horizontalStack=0;resizeParent=1;resizeParentMax=0;resizeLast=0;collapsible=1;marginBottom=0;whiteSpace=wrap;html=1;fillColor=light-dark(#04e7e3, #ff9281);strokeColor=#B20000;fontColor=#ffffff;" vertex="1" parent="1">
          <mxGeometry x="80" y="460" width="160" height="144" as="geometry" />
        </mxCell>
        <mxCell id="IN7CzRkA_pvhB2IImy1x-13" value="+Name&lt;div&gt;+Gender&lt;/div&gt;&lt;div&gt;+Email&lt;/div&gt;&lt;div&gt;+Phone&lt;/div&gt;&lt;div&gt;+Department&lt;/div&gt;&lt;div&gt;&lt;br&gt;&lt;/div&gt;" style="text;strokeColor=none;fillColor=none;align=left;verticalAlign=top;spacingLeft=4;spacingRight=4;overflow=hidden;rotatable=0;points=[[0,0.5],[1,0.5]];portConstraint=eastwest;whiteSpace=wrap;html=1;" vertex="1" parent="IN7CzRkA_pvhB2IImy1x-12">
          <mxGeometry y="26" width="160" height="84" as="geometry" />
        </mxCell>
        <mxCell id="IN7CzRkA_pvhB2IImy1x-14" value="" style="line;strokeWidth=1;fillColor=none;align=left;verticalAlign=middle;spacingTop=-1;spacingLeft=3;spacingRight=3;rotatable=0;labelPosition=right;points=[];portConstraint=eastwest;strokeColor=inherit;" vertex="1" parent="IN7CzRkA_pvhB2IImy1x-12">
          <mxGeometry y="110" width="160" height="8" as="geometry" />
        </mxCell>
        <mxCell id="IN7CzRkA_pvhB2IImy1x-15" value="isDonor()&lt;div&gt;&lt;br&gt;&lt;/div&gt;" style="text;strokeColor=none;fillColor=none;align=left;verticalAlign=top;spacingLeft=4;spacingRight=4;overflow=hidden;rotatable=0;points=[[0,0.5],[1,0.5]];portConstraint=eastwest;whiteSpace=wrap;html=1;" vertex="1" parent="IN7CzRkA_pvhB2IImy1x-12">
          <mxGeometry y="118" width="160" height="26" as="geometry" />
        </mxCell>
        <mxCell id="IN7CzRkA_pvhB2IImy1x-16" value="Donor" style="swimlane;childLayout=stackLayout;horizontal=1;startSize=50;horizontalStack=0;rounded=1;fontSize=14;fontStyle=0;strokeWidth=2;resizeParent=0;resizeLast=1;shadow=0;dashed=0;align=center;arcSize=4;whiteSpace=wrap;html=1;strokeColor=light-dark(#04e7e3, #ededed);" vertex="1" parent="1">
          <mxGeometry x="80" y="690" width="150" height="90" as="geometry" />
        </mxCell>
        <mxCell id="IN7CzRkA_pvhB2IImy1x-17" value="+View Students" style="align=left;strokeColor=none;fillColor=none;spacingLeft=4;fontSize=12;verticalAlign=top;resizable=0;rotatable=0;part=1;html=1;" vertex="1" parent="IN7CzRkA_pvhB2IImy1x-16">
          <mxGeometry y="50" width="150" height="40" as="geometry" />
        </mxCell>
        <mxCell id="IN7CzRkA_pvhB2IImy1x-18" value="" style="endArrow=block;endFill=1;html=1;edgeStyle=orthogonalEdgeStyle;align=left;verticalAlign=top;rounded=0;exitX=0.46;exitY=1.154;exitDx=0;exitDy=0;exitPerimeter=0;strokeColor=light-dark(#04e7e3, #ededed);" edge="1" parent="1">
          <mxGeometry x="-1" relative="1" as="geometry">
            <mxPoint x="154.5" y="604" as="sourcePoint" />
            <mxPoint x="156" y="690" as="targetPoint" />
            <Array as="points">
              <mxPoint x="155.5" y="604" />
            </Array>
          </mxGeometry>
        </mxCell>
        <mxCell id="IN7CzRkA_pvhB2IImy1x-19" value="1" style="edgeLabel;resizable=0;html=1;align=left;verticalAlign=bottom;" connectable="0" vertex="1" parent="IN7CzRkA_pvhB2IImy1x-18">
          <mxGeometry x="-1" relative="1" as="geometry" />
        </mxCell>
        <mxCell id="IN7CzRkA_pvhB2IImy1x-24" value="&lt;p style=&quot;margin:0px;margin-top:4px;text-align:center;text-decoration:underline;&quot;&gt;&lt;b&gt;Student&lt;/b&gt;&lt;/p&gt;&lt;hr size=&quot;1&quot; style=&quot;border-style:solid;&quot;&gt;&lt;p style=&quot;margin:0px;margin-left:8px;&quot;&gt;Name&lt;/p&gt;&lt;p style=&quot;margin:0px;margin-left:8px;&quot;&gt;Gender&lt;/p&gt;&lt;p style=&quot;margin:0px;margin-left:8px;&quot;&gt;DOB&lt;/p&gt;&lt;p style=&quot;margin:0px;margin-left:8px;&quot;&gt;ModeofStudy&lt;/p&gt;&lt;p style=&quot;margin:0px;margin-left:8px;&quot;&gt;Intermediary&lt;/p&gt;&lt;p style=&quot;margin:0px;margin-left:8px;&quot;&gt;donor&lt;/p&gt;&lt;p style=&quot;margin:0px;margin-left:8px;&quot;&gt;class_level&lt;/p&gt;&lt;p style=&quot;margin:0px;margin-left:8px;&quot;&gt;position&lt;/p&gt;&lt;p style=&quot;margin:0px;margin-left:8px;&quot;&gt;Status&lt;/p&gt;&lt;p style=&quot;margin:0px;margin-left:8px;&quot;&gt;LevelofSupport&lt;/p&gt;&lt;p style=&quot;margin:0px;margin-left:8px;&quot;&gt;Background Information&lt;/p&gt;&lt;p style=&quot;margin:0px;margin-left:8px;&quot;&gt;Primary school&lt;/p&gt;&lt;p style=&quot;margin:0px;margin-left:8px;&quot;&gt;Secondary school&lt;/p&gt;&lt;p style=&quot;margin:0px;margin-left:8px;&quot;&gt;Tertiary school&lt;/p&gt;&lt;p style=&quot;margin:0px;margin-left:8px;&quot;&gt;Profile Pic&lt;/p&gt;&lt;p style=&quot;margin:0px;margin-left:8px;&quot;&gt;&lt;br&gt;&lt;/p&gt;" style="verticalAlign=top;align=left;overflow=fill;html=1;whiteSpace=wrap;" vertex="1" parent="1">
          <mxGeometry x="520" y="483" width="180" height="277" as="geometry" />
        </mxCell>
        <mxCell id="IN7CzRkA_pvhB2IImy1x-25" value="" style="endArrow=block;endFill=1;html=1;edgeStyle=orthogonalEdgeStyle;align=left;verticalAlign=top;rounded=0;exitX=0.5;exitY=1;exitDx=0;exitDy=0;strokeColor=light-dark(#316add, #ededed);" edge="1" parent="1" source="IN7CzRkA_pvhB2IImy1x-5">
          <mxGeometry x="-1" relative="1" as="geometry">
            <mxPoint x="190" y="490" as="sourcePoint" />
            <mxPoint x="580" y="480" as="targetPoint" />
          </mxGeometry>
        </mxCell>
        <mxCell id="IN7CzRkA_pvhB2IImy1x-26" value="1" style="edgeLabel;resizable=0;html=1;align=left;verticalAlign=bottom;" connectable="0" vertex="1" parent="IN7CzRkA_pvhB2IImy1x-25">
          <mxGeometry x="-1" relative="1" as="geometry" />
        </mxCell>
        <mxCell id="IN7CzRkA_pvhB2IImy1x-27" value="" style="endArrow=block;endFill=1;html=1;edgeStyle=orthogonalEdgeStyle;align=left;verticalAlign=top;rounded=0;strokeColor=light-dark(#316add, #ededed);" edge="1" parent="1">
          <mxGeometry x="-1" relative="1" as="geometry">
            <mxPoint x="240" y="520" as="sourcePoint" />
            <mxPoint x="520" y="521" as="targetPoint" />
            <Array as="points">
              <mxPoint x="240" y="521" />
            </Array>
          </mxGeometry>
        </mxCell>
        <mxCell id="IN7CzRkA_pvhB2IImy1x-28" value="1" style="edgeLabel;resizable=0;html=1;align=left;verticalAlign=bottom;" connectable="0" vertex="1" parent="IN7CzRkA_pvhB2IImy1x-27">
          <mxGeometry x="-1" relative="1" as="geometry" />
        </mxCell>
        <mxCell id="IN7CzRkA_pvhB2IImy1x-29" value="" style="endArrow=block;endFill=1;html=1;edgeStyle=orthogonalEdgeStyle;align=left;verticalAlign=top;rounded=0;strokeColor=light-dark(#0047d6, #ededed);" edge="1" parent="1">
          <mxGeometry x="-1" relative="1" as="geometry">
            <mxPoint x="540" y="350" as="sourcePoint" />
            <mxPoint x="670" y="480" as="targetPoint" />
          </mxGeometry>
        </mxCell>
        <mxCell id="IN7CzRkA_pvhB2IImy1x-30" value="1" style="edgeLabel;resizable=0;html=1;align=left;verticalAlign=bottom;" connectable="0" vertex="1" parent="IN7CzRkA_pvhB2IImy1x-29">
          <mxGeometry x="-1" relative="1" as="geometry" />
        </mxCell>
      </root>
    </mxGraphModel>
  </diagram>
</mxfile>
